<?xml version="1.0" encoding="UTF-8" standalone="no"?>
<!DOCTYPE svg PUBLIC "-//W3C//DTD SVG 1.1//EN" "http://www.w3.org/Graphics/SVG/1.1/DTD/svg11.dtd">
<svg width="100%" height="100%" viewBox="0 0 200 200" version="1.1" xmlns="http://www.w3.org/2000/svg" xmlns:xlink="http://www.w3.org/1999/xlink" xml:space="preserve" xmlns:serif="http://www.serif.com/" style="fill-rule:evenodd;clip-rule:evenodd;stroke-linejoin:round;stroke-miterlimit:2;">
    <g id="Layer-1" serif:id="Layer 1" transform="matrix(0.492111,0,0,0.492111,5.17499,25.7027)">
        <g transform="matrix(2.03206,0,0,2.03206,-10.5159,-52.2294)">
            <rect x="0" y="0" width="200" height="200"/>
        </g>
        <g transform="matrix(0.982405,0,0,0.982405,2.80802,-10.5557)">
            <g transform="matrix(1,0,0,1,150.45,130.066)">
                <path d="M0,171.87C-9.855,171.87 -19.161,171.918 -28.466,171.852C-34.634,171.809 -38.005,168.244 -40.223,162.769C-52.838,131.627 -65.562,100.528 -78.307,69.439C-84.619,54.045 -91.09,38.716 -97.421,23.33C-99.858,17.407 -99.059,15.523 -93.284,13.54C-54.736,0.306 -16.22,-0.048 22.236,13.951C23.642,14.463 25.022,15.05 26.395,15.647C26.988,15.906 27.532,16.281 28.492,16.826C24.425,26.835 20.391,36.763 16.048,47.45C23.532,50.131 30.437,52.92 37.531,55.096C97.221,73.408 156.363,71.847 214.895,49.917C221.593,47.408 222.136,47.691 224.789,54.306C228,62.307 231.304,70.272 234.931,79.142C221.377,83.38 208.244,88.112 194.786,91.585C133.141,107.494 72.376,104.249 12.62,82.265C11.213,81.748 9.807,81.23 8.403,80.705C4.316,79.175 3.248,76.678 5.106,72.508C8.557,64.764 11.652,56.862 14.88,49.02C15.002,48.725 14.968,48.368 15.064,47.559C4.077,42.529 -7.609,39.398 -19.683,38.399C-29.095,37.621 -38.644,37.735 -48.082,38.297C-54.898,38.703 -56.936,42.774 -53.423,48.612C-35.382,78.602 -23.936,111.505 -10.925,143.724C-7.563,152.048 -3.931,160.263 -0.458,168.542C-0.215,169.121 -0.269,169.824 0,171.87" style="fill:white;fill-rule:nonzero;"/>
            </g>
            <g transform="matrix(1,0,0,1,230.406,28.0677)">
                <path d="M0,-4.899C-4.217,5.185 -8.245,14.816 -12.479,24.939C-17.806,23.185 -22.945,21.524 -28.064,19.805C-88.845,-0.605 -149.358,-0.046 -209.603,22.095C-218.543,25.381 -219.026,25.09 -222.594,15.94C-224.768,10.367 -226.811,4.705 -229.513,-0.611C-231.372,-4.267 -230.21,-5.82 -227.119,-7.585C-213.015,-15.632 -197.597,-19.781 -181.81,-22.438C-135.222,-30.28 -88.651,-30.11 -42.259,-20.786C-27.543,-17.828 -13.25,-13.453 0,-4.899" style="fill:white;fill-rule:nonzero;"/>
            </g>
            <g transform="matrix(1,0,0,1,269.651,116.122)">
                <path d="M0,48.376C-28.939,49.089 -56.58,43.022 -83.53,33.126C-90.19,30.68 -90.443,29.833 -87.685,23.341C-85.084,17.221 -82.418,11.112 -80.215,4.846C-78.636,0.356 -76.398,-0.573 -71.956,1.125C-45.976,11.056 -19.092,15.577 8.758,14.278C29.889,13.293 50.249,8.747 70.107,1.66C76.755,-0.713 77.03,-0.54 79.644,5.901C82.018,11.752 84.455,17.577 86.918,23.392C89.586,29.693 89.277,30.587 83.058,32.996C65.419,39.828 47.099,43.897 28.356,46.029C18.937,47.101 9.454,47.611 0,48.376" style="fill:white;fill-rule:nonzero;"/>
            </g>
            <g transform="matrix(1,0,0,1,204.769,96.5623)">
                <path d="M0,-11.898C-3.891,-2.401 -7.512,6.331 -11.039,15.102C-12.397,18.48 -14.588,18.364 -17.483,17.237C-43.427,7.132 -70.344,2.732 -98.141,3.885C-119.229,4.76 -139.745,8.656 -159.538,16.126C-166.836,18.881 -167.799,18.347 -170.608,11.172C-172.788,5.604 -175.136,0.099 -177.492,-5.398C-180.07,-11.416 -179.786,-12.385 -173.765,-14.689C-144.966,-25.707 -115.121,-30.779 -84.318,-29.944C-58.174,-29.235 -32.745,-24.554 -8.203,-15.381C-5.588,-14.404 -3.057,-13.203 0,-11.898" style="fill:white;fill-rule:nonzero;"/>
            </g>
            <g transform="matrix(1,0,0,1,204.759,70.1987)">
                <path d="M0,14.056C3.976,4.586 7.771,-4.059 11.21,-12.844C12.545,-16.255 14.768,-15.099 16.91,-14.657C27.488,-12.477 37.988,-9.851 48.63,-8.064C69.279,-4.597 89.376,-7.522 109.004,-14.388C115.944,-16.817 116.312,-16.628 118.973,-10.033C121.46,-3.871 124.013,2.264 126.529,8.415C128.829,14.036 128.609,14.68 122.89,16.689C85.889,29.688 48.704,30.873 11.343,18.258C7.631,17.005 3.99,15.54 0,14.056" style="fill:white;fill-rule:nonzero;"/>
            </g>
        </g>
    </g>
</svg>